<svg width="237" height="96" viewBox="0 0 237 96" fill="none" xmlns="http://www.w3.org/2000/svg">
<rect width="237" height="96" rx="48" fill="#333333"/>
<path fill-rule="evenodd" clip-rule="evenodd" d="M84.2155 46.4677L85.1285 43.5377L82.1066 43.6336C81.8516 43.6336 79.9959 43.5796 78.1951 42.272C78.33 42.2833 78.4632 42.3034 78.6016 42.3034C80.4546 42.3034 82.2493 41.1851 82.9674 39.5845L84.2669 36.6946C82.6358 36.7164 81.1457 36.5097 81.1457 36.5097C81.1335 36.5088 79.9585 36.3562 78.6007 34.9649C77.6268 33.9687 76.4213 33.441 75.1157 33.441C74.5439 33.441 74.033 33.5448 73.5926 33.6843C73.6622 33.4497 73.7258 33.2124 73.7649 32.9673C74.1792 30.2624 72.4437 28.2003 72.4428 28.202L70.1694 25.381L68.7603 28.6949C68.7559 28.7053 68.3991 29.4825 67.7637 29.8611C67.5722 28.8868 67.0996 27.792 66.0917 26.7453C64.1899 24.7731 61.8756 24.4774 60.6649 24.4774C60.1035 24.4774 59.7023 24.5393 59.6057 24.555L56.8623 25.0958C57.0207 24.4817 57.3584 23.4106 57.9746 22.4484L59.4882 20.0854L55.6794 20.5189L54.4652 17.937L52.1161 19.1512L49.9428 17.0001L47.7764 19.1512L45.4212 17.937L44.2105 20.5189L40.4026 20.0837L41.9188 22.4493C42.5359 23.4106 42.8719 24.4791 43.0285 25.0914L40.4104 24.5742L40.3208 24.5602C40.1894 24.5393 39.7916 24.4774 39.2276 24.4774C38.0169 24.4774 35.7035 24.7731 33.806 26.7444C32.7964 27.7903 32.3229 28.8868 32.1297 29.8611C31.4978 29.486 31.1444 28.721 31.1444 28.721L29.7327 25.388L27.4245 28.2264C27.1416 28.5919 25.7507 30.531 26.1285 32.9708C26.1676 33.2142 26.2312 33.4497 26.2991 33.6843C25.8613 33.5439 25.3504 33.441 24.7794 33.441C23.473 33.441 22.2675 33.9687 21.2918 34.9649C19.9375 36.35 18.7703 36.5071 18.7799 36.5071C18.7799 36.5071 17.544 36.7304 15.6326 36.6946L16.9251 39.5845C17.6449 41.1851 19.4405 42.3034 21.2901 42.3034C21.4293 42.3034 21.5625 42.2833 21.6991 42.272C19.9027 43.5796 18.047 43.6336 17.8225 43.6345L14.7457 43.5377L15.6779 46.4668C16.1479 47.9767 17.7146 50.4776 20.7156 50.7471C20.3892 52.1184 19.6659 53.6562 18.0766 54.3174L15.7832 55.2638L17.0339 57.4463C17.7389 58.623 19.3961 59.9995 21.754 59.9995C22.264 59.9977 22.7566 59.9463 23.2319 59.8451C23.3528 60.3824 23.5043 60.9215 23.6836 61.4562C24.3851 63.5514 23.7802 65.0116 23.7741 65.0282L22.6417 67.4043L25.1684 68.0716C25.1998 68.0812 25.9631 68.2923 26.9188 68.2923C27.3513 68.2923 27.7674 68.2469 28.1547 68.1536C28.448 68.0847 28.7309 67.994 29.0024 67.8832C29.3297 68.4711 29.7266 69.0076 30.1896 69.4882C31.8085 71.1534 34.1037 71.9969 37.009 71.9969H37.0186L39.0936 71.9699L34.807 73.7563L38.0613 75.3325C39.2441 75.91 40.6454 76.593 42.0737 77.1155L41.6673 78.2294L42.7883 78.7423C42.8884 78.7876 45.0461 79.7541 48.6311 79.96C48.6311 79.96 49.4963 80.0001 49.9732 80.0001C50.4493 80.0001 51.3049 79.9574 51.3049 79.9574C54.8665 79.7463 57.0067 78.7876 57.1068 78.7423L58.2314 78.2285L57.8214 77.1129C59.2889 76.5747 60.7433 75.8646 61.8765 75.3098L65.0708 73.7546L60.7981 71.9699L62.8818 71.9969C65.7914 71.9969 68.0866 71.1525 69.7029 69.4856C70.1642 69.0093 70.5602 68.4737 70.8892 67.8832C71.1616 67.994 71.4462 68.0847 71.7404 68.1553C72.1269 68.2469 72.542 68.2923 72.9746 68.2923C73.9138 68.2923 74.6858 68.0838 74.7058 68.0768L77.2438 67.4043L76.1384 65.0718C76.1123 65.0116 75.5074 63.5514 76.2089 61.4544C76.3874 60.9197 76.5379 60.3815 76.6607 59.8451C77.1368 59.9463 77.6337 59.9977 78.1481 59.9995C81.1527 59.9995 82.5931 57.8816 82.8717 57.4219L84.1093 55.2621L81.8176 54.3191C80.224 53.6562 79.5016 52.1192 79.1786 50.7489C82.1405 50.4907 83.729 47.9872 84.2155 46.4677Z" fill="white"/>
<path fill-rule="evenodd" clip-rule="evenodd" d="M49.943 25.9734C47.5155 25.976 45.6947 26.7724 45.2995 27.711L49.943 29.548L54.5882 27.711C54.1948 26.7724 52.374 25.976 49.943 25.9734Z" fill="white"/>
<path fill-rule="evenodd" clip-rule="evenodd" d="M49.9926 74.5927H49.8994C48.4285 74.6023 46.4014 74.3004 45.4275 74.0143L44.2524 77.1982C45.0262 77.4747 47.6495 78.0042 49.9482 78.0042C52.2425 78.0042 54.8667 77.4747 55.6396 77.1982L54.4672 74.0143C53.488 74.3004 51.4635 74.6023 49.9926 74.5927Z" fill="white"/>
<path fill-rule="evenodd" clip-rule="evenodd" d="M58.8777 71.4248C58.0038 71.9203 56.0525 72.6652 54.9184 73.0106L55.8705 75.6406C57.6261 75.1599 59.0761 74.5991 60.272 73.9972L58.2945 73.3386L58.8777 71.4248Z" fill="white"/>
<path fill-rule="evenodd" clip-rule="evenodd" d="M41.0131 71.4248L41.598 73.3386L39.6187 73.9972C40.8129 74.5991 42.269 75.1599 44.0185 75.6406L44.9724 73.0106C43.84 72.6652 41.8861 71.9203 41.0131 71.4248Z" fill="white"/>
<path fill-rule="evenodd" clip-rule="evenodd" d="M49.9436 22.9291C51.774 22.9291 53.5678 23.3678 54.9483 24.138C55.0745 23.715 55.2511 23.2003 55.4905 22.6604L54.9674 22.7232L54.4208 22.7808L54.1893 22.281L53.4904 20.8033L52.2188 21.468L51.7226 21.7201L51.3266 21.3293L49.9436 19.9581L48.5632 21.3293L48.1689 21.7201L47.6737 21.468L46.3942 20.8033L45.7057 22.281L45.469 22.7808L44.9224 22.7232L44.4019 22.6604C44.6413 23.2003 44.8162 23.715 44.9442 24.138C46.3298 23.3678 48.1219 22.9291 49.9436 22.9291Z" fill="white"/>
<path fill-rule="evenodd" clip-rule="evenodd" d="M77.8835 40.0074C78.1211 40.0894 78.3622 40.126 78.6015 40.126C79.6373 40.126 80.6373 39.4544 80.9811 38.6876C80.9811 38.6876 79.0837 38.5725 77.0427 36.4956C76.3925 35.823 75.7049 35.6215 75.1148 35.6215C74.1983 35.6215 73.5107 36.1057 73.5107 36.1057C75.9765 37.4219 76.4795 39.532 77.8835 40.0074Z" fill="white"/>
<path fill-rule="evenodd" clip-rule="evenodd" d="M21.2906 40.126C21.5299 40.126 21.7719 40.0894 22.0043 40.0065C23.4117 39.532 23.9191 37.4219 26.3814 36.1065C26.3814 36.1065 25.6921 35.6215 24.7808 35.6215C24.1872 35.6215 23.5005 35.823 22.8477 36.4964C20.8093 38.5725 18.9127 38.6885 18.9127 38.6885C19.253 39.4544 20.2557 40.126 21.2906 40.126Z" fill="white"/>
<path fill-rule="evenodd" clip-rule="evenodd" d="M77.1392 55.1607C75.2322 54.2178 74.0267 51.7161 73.736 50.815C73.4192 55.7766 71.003 59.2186 68.1786 62.5333C66.7129 64.2517 66.2012 65.9221 66.2012 65.9221C66.2012 65.9221 66.484 64.0293 67.7513 62.4888C70.3868 59.3163 72.8917 55.3649 73.078 50.7976C73.2059 47.6085 72.3887 45.0239 71.1118 42.8929C71.8264 45.112 71.7246 47.8292 69.3006 50.3658C69.3006 50.3658 74.1277 44.5694 67.3788 38.6266C64.6789 36.3647 61.7222 34.9682 60.2017 33.979C65.6981 35.7759 68.3823 33.7976 68.3823 33.7976C66.6276 35.3223 64.3551 35.2962 62.9451 35.0764C63.3281 35.263 63.7258 35.4584 64.1532 35.6887C68.7879 38.2113 72.9527 42.3626 73.6629 48.1109V48.0673C74.7404 53.7119 77.1392 55.1607 77.1392 55.1607ZM78.5509 48.5837C78.5935 48.5863 78.6301 48.5863 78.6736 48.5863C81.2569 48.5863 82.1325 45.8133 82.1325 45.8133H82.082C81.6077 45.8133 77.7667 45.7017 75.0511 42.2431C73.2651 39.969 71.7994 37.9697 68.9072 37.1829L68.6225 37.1323L68.5607 36.8419C68.4807 36.3996 68.7844 35.9835 69.4712 35.536C73.4636 32.9166 70.7515 29.5748 70.7515 29.5748C70.7515 29.5748 69.6122 32.2467 67.062 32.2467C67.0002 32.2467 66.9358 32.2432 66.8722 32.2432C66.5833 32.2283 66.303 32.2179 66.0219 32.1577L65.5519 32.0661C65.5519 32.0661 66.2795 30.0834 64.5239 28.2638C63.2019 26.8899 61.5934 26.6562 60.6647 26.6562C60.1964 26.6562 59.8997 26.7164 59.8997 26.7164C60.7813 27.8713 61.4185 29.7886 60.401 30.9714C59.521 31.9876 57.3721 32.0364 57.3721 33.5516C57.3721 34.1936 57.97 34.942 59.0441 35.6146C62.274 37.6531 65.4805 40.3589 66.8148 43.9841C68.4807 48.5052 66.6033 51.5076 63.9243 53.2286C63.9243 53.2286 64.765 54.0041 65.9827 54.1035C66.2316 54.1271 66.4736 54.1384 66.699 54.1384C69.2718 54.1384 70.6026 52.9294 70.6026 52.9294C70.6026 52.9294 70.3824 54.5999 69.0447 56.1508C67.8087 57.5822 66.189 58.4266 63.7145 58.4615C63.7145 58.4615 63.637 59.6111 64.732 60.6073C65.4335 61.2353 67.0506 61.4395 67.0506 61.4395C67.0506 61.4395 64.0209 62.0553 63.6866 66.5406C63.5047 68.9708 62.885 69.8152 62.885 69.8152H62.939C69.9707 69.8152 69.7906 63.7711 69.7906 63.7711C69.7906 63.7711 70.2797 65.561 72.2416 66.0277C72.4783 66.0896 72.7316 66.114 72.9727 66.114C73.6037 66.114 74.1529 65.9649 74.1529 65.9649C74.1529 65.9649 73.125 63.7938 74.1442 60.7565C74.9893 58.2355 74.8535 56.368 74.8535 56.368C74.8535 56.368 75.7996 57.8038 78.1497 57.8169H78.1732C80.1289 57.8169 80.981 56.3314 80.981 56.3314C76.2931 54.38 76.7562 48.0856 76.7562 48.0856C76.7562 48.0856 77.3646 48.541 78.5509 48.5837Z" fill="white"/>
<path fill-rule="evenodd" clip-rule="evenodd" d="M31.7119 62.5333C28.8876 59.2186 26.4723 55.7766 26.1529 50.815C25.8613 51.7161 24.6602 54.2178 22.7541 55.1607C22.7541 55.1607 25.1502 53.7119 26.2268 48.0673V48.1109C26.9397 42.3634 31.1036 38.2113 35.7392 35.6896C36.1639 35.4575 36.5652 35.263 36.9455 35.0772C35.5364 35.2962 33.2638 35.3223 31.51 33.7976C31.51 33.7976 34.1943 35.7759 39.6889 33.979C38.1684 34.9691 35.2143 36.3647 32.5144 38.6266C25.7638 44.5694 30.5918 50.3667 30.5918 50.3667C28.1643 47.8292 28.0668 45.1129 28.7805 42.8929C27.5019 45.0239 26.6847 47.6085 26.8161 50.7976C27.0006 55.3649 29.5047 59.3154 32.1349 62.4897C33.4083 64.0293 33.6947 65.9213 33.6947 65.9213C33.6947 65.9213 33.1768 64.2517 31.7119 62.5333ZM32.8417 61.4395C32.8417 61.4395 34.4597 61.2362 35.1621 60.6064C36.2562 59.6111 36.1778 58.4615 36.1778 58.4615C33.7034 58.4266 32.0845 57.5822 30.8416 56.1517C29.5116 54.5999 29.2906 52.9294 29.2906 52.9294C29.2906 52.9294 30.6205 54.1384 33.1898 54.1384C33.4205 54.1384 33.6607 54.1271 33.9088 54.1035C35.1282 54.0041 35.9716 53.2295 35.9716 53.2295C33.2899 51.5076 31.4117 48.5061 33.0758 43.9841C34.4101 40.3598 37.6157 37.6531 40.8474 35.6137C41.9197 34.942 42.5176 34.1936 42.5176 33.5516C42.5176 32.0364 40.3713 31.9876 39.4922 30.9714C38.4748 29.7886 39.1119 27.8713 39.9918 26.7164C39.9918 26.7164 39.6985 26.6562 39.2276 26.6562C38.2998 26.6562 36.6922 26.8899 35.3701 28.2638C33.6111 30.0834 34.3405 32.0661 34.3405 32.0661L33.8705 32.1577C33.5902 32.217 33.3073 32.2283 33.0192 32.244C32.9531 32.244 32.8948 32.2467 32.833 32.2467C30.2758 32.2467 29.1426 29.5757 29.1426 29.5757C29.1426 29.5757 26.4323 32.9166 30.4229 35.536C31.1096 35.9835 31.4117 36.3996 31.3316 36.8419L31.2698 37.1315L30.98 37.1829C28.0921 37.9697 26.6255 39.969 24.8369 42.2431C22.123 45.7008 18.2873 45.8133 17.8095 45.8133H17.7572C17.7572 45.8133 18.6328 48.5863 21.2178 48.5863C21.2588 48.5863 21.297 48.5863 21.3406 48.5837C22.5286 48.541 23.1379 48.0856 23.1379 48.0856C23.1379 48.0856 23.5974 54.38 18.9114 56.3305C18.9114 56.3305 19.7652 57.8177 21.7201 57.8177H21.7436C24.0944 57.8038 25.0397 56.368 25.0397 56.368C25.0397 56.368 24.903 58.2364 25.7455 60.7565C26.7647 63.7946 25.742 65.9658 25.742 65.9658C25.742 65.9658 26.2886 66.114 26.9197 66.114C27.1642 66.114 27.4149 66.0896 27.6499 66.0277C29.6091 65.561 30.1 63.7711 30.1 63.7711C30.1 63.7711 29.9207 69.8152 36.9533 69.8152H37.0038C37.0038 69.8152 36.3885 68.9708 36.2074 66.5397C35.8741 62.0553 32.8417 61.4395 32.8417 61.4395Z" fill="white"/>
<path fill-rule="evenodd" clip-rule="evenodd" d="M48.3566 39.1671H51.6719V40.3072C51.282 39.8283 50.523 39.926 50.523 39.926V41.5694C50.523 41.5694 50.5508 42.378 50.8346 42.7278H49.1939C49.4812 42.378 49.5064 41.5694 49.5064 41.5694V39.926C49.5064 39.926 48.75 39.8283 48.3566 40.3072V39.1671ZM44.7446 39.3381C44.8603 39.4619 44.9735 39.5963 45.0832 39.7324C45.1093 39.7638 45.1328 39.7917 45.1589 39.8283C45.2598 39.9626 45.3617 40.1057 45.46 40.2514C45.4818 40.2802 45.5027 40.315 45.5262 40.3482C45.6437 40.527 45.7551 40.7111 45.8656 40.9012C46.8805 42.6563 48.5029 43.7047 49.9433 43.7074C51.3855 43.7047 53.0062 42.6563 54.0236 40.9012C54.1359 40.7058 54.2499 40.5174 54.3674 40.3403C54.3848 40.315 54.404 40.2889 54.4197 40.2627C54.5206 40.1118 54.6251 39.9653 54.7347 39.8231C54.7582 39.7917 54.78 39.7638 54.8009 39.7376C54.914 39.5963 55.0307 39.4602 55.1499 39.3337C55.1699 39.3137 55.1873 39.2945 55.2065 39.2779C55.7235 38.7475 56.3388 38.3437 57.1457 38.1204L56.7862 37.9101H56.7662L55.3388 37.0797L53.8722 36.238L49.9538 38.376L49.9433 38.3672L49.9364 38.376L46.0171 36.238L44.5514 37.0797L43.1213 37.9101H43.1048L42.7427 38.1204C43.5496 38.3437 44.1632 38.7432 44.6819 39.2744C44.7045 39.2945 44.7202 39.318 44.7446 39.3381Z" fill="white"/>
<path fill-rule="evenodd" clip-rule="evenodd" d="M48.6969 31.9221V32.995L48.4914 32.9008C48.4818 32.893 48.1797 32.8249 47.6538 32.4071C46.7857 31.7328 46.7682 31.11 46.7682 31.11L48.6969 31.9221ZM49.6068 36.9561V30.2822L45.3664 28.8412L46.4844 35.3083L49.6068 36.9561Z" fill="white"/>
<path fill-rule="evenodd" clip-rule="evenodd" d="M51.1964 31.9221L53.1251 31.11C53.1251 31.11 53.1086 31.7328 52.237 32.4071C51.7128 32.8249 51.4106 32.893 51.4002 32.9008L51.1964 32.995V31.9221ZM53.4072 35.3083L54.5218 28.8412L50.2839 30.2822V36.9561L53.4072 35.3083Z" fill="white"/>
<path fill-rule="evenodd" clip-rule="evenodd" d="M43.6111 52.4273C44.0229 52.5773 44.5244 52.6087 44.7813 52.6087C44.7909 52.5773 44.8048 52.5381 44.817 52.4901C44.8397 52.4142 44.8614 52.3383 44.8771 52.2555C44.9494 51.8856 44.9746 51.4678 44.9807 51.1974C44.8074 51.0883 44.561 50.8964 44.4234 50.6086C44.2667 50.2771 44.0412 50.1218 43.7138 50.1218C43.2871 50.1218 42.83 50.3792 42.6323 50.4995C42.4765 51.4224 43.1557 52.2589 43.6111 52.4273Z" fill="white"/>
<path fill-rule="evenodd" clip-rule="evenodd" d="M52.9863 48.8875C52.1995 49.7459 50.6572 51.2392 50.5832 51.3134L50.4901 51.4076L45.6212 51.3308C45.6177 51.814 45.5394 52.2249 45.4637 52.5267C45.4515 52.5764 45.4376 52.6288 45.4245 52.6811L51.216 53.7252C51.8183 53.303 53.4764 52.0888 54.1213 51.6134C53.653 50.9278 53.6086 50.1148 53.714 49.5426C53.4058 49.3463 53.1726 49.123 52.9863 48.8875Z" fill="white"/>
<path fill-rule="evenodd" clip-rule="evenodd" d="M53.6458 43.0176C52.5239 44.1323 51.4481 44.5467 50.4872 44.6418C50.3114 44.6601 50.1356 44.6714 49.9572 44.6714H49.9328C49.7535 44.6714 49.576 44.6601 49.4028 44.6418C49.2339 44.6269 49.0581 44.5999 48.8814 44.5598C48.8187 44.811 48.7387 45.3344 48.9667 45.8324C49.1704 46.2825 49.5838 46.6175 50.187 46.8417L50.3898 46.921L50.3933 47.14C50.3933 47.2045 50.4411 48.6246 51.9843 49.0189C52.2367 48.759 52.4656 48.5234 52.6353 48.3263C52.3203 47.5822 52.4856 46.8225 52.9434 46.4509C52.9234 46.5294 52.7224 48.3926 54.2125 49.0852L54.4579 49.2021L54.3848 49.4638C54.3604 49.5423 53.8634 51.3462 55.6686 52.0169L55.988 52.1382L55.8461 52.4487C55.8148 52.5176 55.1072 54.1532 56.774 55.083H60.3878V52.2071C59.1022 52.0501 58.5591 51.0147 58.4181 50.282C57.8202 50.179 57.3589 49.9208 57.0412 49.4995C56.2831 48.499 56.935 47.5822 56.9437 47.5325C56.9419 47.5404 56.9437 48.5156 57.5442 49.1183C57.8428 49.4079 58.1944 49.6339 58.728 49.6844L58.9908 49.708L59.0134 49.9775C59.0178 50.0342 59.1623 51.3557 60.3878 51.5625L60.3851 45.6876C60.3851 44.7778 60.6497 43.8628 60.9683 43.0176H53.6458Z" fill="white"/>
<path fill-rule="evenodd" clip-rule="evenodd" d="M43.919 45.7094L43.8206 49.4498L44.2455 49.5152L45.2834 45.9258L44.7566 44.8215L43.919 45.7094Z" fill="white"/>
<path fill-rule="evenodd" clip-rule="evenodd" d="M46.1662 59.5579C46.0452 59.5544 45.9565 59.4515 45.9643 59.3302C45.9739 59.2142 46.0722 59.1226 46.1915 59.1331C46.3133 59.1375 46.3986 59.2448 46.3951 59.359C46.3838 59.4777 46.282 59.5684 46.1662 59.5579ZM55.3565 62.8691C55.3887 62.8691 55.4244 62.8735 55.4592 62.8822C56.105 63.0671 56.2678 65.3987 57.4001 65.6063C57.5116 65.6299 57.6134 65.6369 57.703 65.6369C58.0312 65.6369 58.2261 65.4973 58.4368 65.2478C58.4368 65.2478 57.8667 64.3511 57.4411 63.7449C56.8744 62.9528 56.4358 61.9959 55.3818 61.9959C55.3565 61.9959 55.326 61.9959 55.2999 61.9994C54.9535 62.0169 54.7394 62.187 54.7394 62.187C54.3121 61.9174 53.9143 61.8267 53.5557 61.8267C52.896 61.8267 52.3824 62.1303 52.1248 62.1303H52.1152L49.7617 61.8974C49.3944 61.8616 49.1029 61.49 48.9984 61.3452C48.9723 61.3051 48.9575 61.2824 48.9575 61.2824C48.9575 61.2179 48.9575 61.1524 48.954 61.094C48.8748 59.1654 47.3848 58.3402 46.8538 58.3271C46.8538 58.3271 46.9165 57.9599 46.7737 57.8203L46.2533 58.4518L44.5517 57.5953L45.7667 59.018L44.7379 60.1755C44.6083 60.3072 44.6248 60.4851 44.6788 60.561L45.1227 60.9544L45.6867 60.6116C45.7145 60.5907 45.7667 60.5837 45.8285 60.5837C45.9843 60.5837 46.2185 60.6247 46.4282 60.6247C46.6589 60.6247 46.8564 60.5759 46.8808 60.3595C46.8103 61.0748 46.1479 62.3169 46.5823 63.2939L46.9052 64.031L44.8241 63.7309L43.8502 65.3787C43.5499 65.9273 43.5029 66.5205 43.7918 66.8441L44.1557 67.3003C44.1557 67.3003 44.6674 66.7578 44.7815 66.4001L44.6161 66.2178C44.4768 66.0643 44.4838 65.9273 44.5691 65.7625L45.1801 64.7471L47.6354 65.3272L47.7651 65.1056C47.9322 64.8274 48.1724 64.7454 48.4353 64.7454C48.5441 64.7454 48.6546 64.7585 48.7704 64.7768C49.2265 64.8666 49.9767 64.9879 50.727 64.9879C51.5495 64.9879 52.3668 64.8405 52.8028 64.3511C53.6924 65.6726 55.4949 65.8829 55.353 66.5545L54.8778 68.819C55.192 68.805 55.4949 68.7849 55.7821 68.7448L56.2338 66.3896C56.2835 66.1323 56.3305 65.7878 56.3305 65.7878C56.1573 65.6107 55.736 65.2374 55.4984 64.7829C55.1807 64.1706 55.353 63.8504 55.0571 63.054C55.0571 63.054 55.1485 62.8691 55.3565 62.8691Z" fill="white"/>
<path fill-rule="evenodd" clip-rule="evenodd" d="M42.8123 65.0114C42.8123 65.0114 43.6273 64.6755 43.6996 64.4365L43.5907 64.1644C43.5133 63.9864 43.5237 63.7945 43.6735 63.6907L44.552 63.081L46.0201 63.3645C46.0201 63.3645 45.7545 63.0304 45.7806 62.5856L44.3788 62.2881L43.057 63.095C42.4901 63.5189 42.4492 64.2132 42.6364 64.625L42.8123 65.0114Z" fill="white"/>
<path fill-rule="evenodd" clip-rule="evenodd" d="M53.1969 68.8488C53.459 68.8383 53.7507 68.834 54.0685 68.834C54.0685 68.834 54.8243 66.6192 54.867 66.5495C54.4438 66.3619 53.5635 65.8944 53.2239 65.6807C53.4494 66.0174 53.9936 66.4003 53.8856 66.6969L53.1969 68.8488Z" fill="white"/>
<path fill-rule="evenodd" clip-rule="evenodd" d="M60.3876 55.7173H39.5038V63.5897C39.5038 66.8102 41.8286 68.8252 45.2596 68.8252C48.1249 68.8252 48.8813 68.9377 49.9475 69.9975C50.6821 69.2631 51.2896 68.9892 52.5377 68.8871L52.5673 68.765L53.2253 66.7256C53.1887 66.6794 52.1121 65.4547 52.1121 65.4547C51.6856 65.5969 51.327 65.6204 50.7256 65.6204C50.1067 65.6204 49.4104 65.548 48.6524 65.4058C48.5766 65.3884 48.5053 65.3805 48.4348 65.3805C48.3416 65.3805 48.3355 65.3884 48.3112 65.4337L48.1806 65.6501L47.9413 66.047L47.4904 65.9423L45.4859 65.4695L45.2109 65.924L45.2518 65.9728L45.4955 66.2424L45.3876 66.593C45.2396 67.0518 44.7618 67.5874 44.6156 67.7357L44.1151 68.2739L43.6581 67.6956L43.3152 67.2647C42.9549 66.8599 42.8713 66.2424 43.0741 65.5934C43.0698 65.5969 43.0628 65.6003 43.0541 65.6012L42.4892 65.8359L42.2351 65.282L42.0567 64.8894C41.7494 64.1986 41.8626 63.1893 42.6912 62.5787L44.304 61.6655L45.8393 61.9681C45.8759 61.8207 45.9307 61.2921 45.9751 61.1578C45.9446 61.1543 45.9176 61.1473 45.8872 61.1473L45.0029 61.4788L44.149 60.8883C44.149 60.8883 43.8157 60.5664 44.1186 60.2445L44.9437 58.9902L42.8504 56.3567L46.0673 57.6809L46.2823 57.4157L46.7158 56.8941L47.2093 57.3642C47.3485 57.4986 47.4286 57.6643 47.4678 57.83C48.3538 58.1763 49.9431 59.1969 50.0833 60.8569L49.5863 61.0557V61.0679C49.7003 61.2032 49.7943 61.259 49.8239 61.2642L52.1199 61.4901C52.1791 61.4805 52.2505 61.4544 52.3323 61.4308C52.6186 61.3331 53.046 61.1918 53.5543 61.1918C53.9686 61.1918 54.3681 61.2869 54.7528 61.4675C54.8947 61.4134 55.0688 61.3741 55.2707 61.361L55.3812 61.3584C56.6102 61.3584 57.2221 62.2787 57.7121 63.014C57.7939 63.1414 57.8757 63.2609 57.961 63.3795C58.3892 63.9866 58.9506 64.8746 58.9732 64.913L59.2265 65.309L58.9167 65.671C58.6782 65.9475 58.3187 66.2729 57.7034 66.2729C57.5763 66.2729 57.437 66.2589 57.2873 66.2301C57.1568 66.2057 57.0367 66.1665 56.9218 66.1176C56.9052 66.2397 56.8791 66.3845 56.8565 66.5093L56.4544 68.615C58.8627 68.0218 60.392 66.1996 60.392 63.5897L60.3876 55.7173Z" fill="#FFDD2D"/>
<path fill-rule="evenodd" clip-rule="evenodd" d="M39.5042 55.083H55.7472C54.936 54.243 54.9482 53.1797 55.1544 52.4888C54.9177 52.3755 54.7227 52.2394 54.5495 52.0893C53.9142 52.5586 51.9767 53.9726 51.4701 54.3268L51.3614 54.4L44.9867 53.2451H44.8579C44.7047 53.2451 44.481 53.239 44.2356 53.2094C44.1668 53.499 43.9188 53.6952 43.635 53.6952C43.602 53.6952 43.5663 53.6926 43.5332 53.6856C43.367 53.6568 43.2216 53.5722 43.125 53.4327C43.0258 53.2948 42.9866 53.1317 43.0136 52.9634L43.0371 52.8255C42.3808 52.3615 41.7733 51.3243 42.0423 50.2314L42.0684 50.1162L42.1615 50.0491C42.1746 50.0395 42.2842 49.9636 42.4496 49.8702L41.9865 49.7987C41.8133 49.7682 41.6967 49.6059 41.7237 49.435C41.7533 49.2614 41.916 49.1375 42.0866 49.1707L43.1903 49.3451L43.2912 45.4512L44.9328 43.7102L45.9581 45.8726L44.8762 49.619L45.8519 49.7725C46.0233 49.7996 46.1408 49.961 46.1147 50.138C46.0895 50.295 45.9555 50.4006 45.8023 50.4006C45.7857 50.4006 45.7683 50.4006 45.7518 50.3989L44.9589 50.2706C44.9693 50.295 44.985 50.309 44.9946 50.3334C45.079 50.5088 45.2661 50.6326 45.3758 50.6876L50.2351 50.7652C50.4414 50.5646 50.9505 50.0639 51.4762 49.5344C50.2795 49.0791 49.8452 48.0472 49.7729 47.3607C49.1045 47.0754 48.6432 46.648 48.3873 46.0924C48.0757 45.4041 48.1862 44.7142 48.2698 44.3792C47.6214 44.1428 46.9407 43.7102 46.2444 43.0176H38.9237C39.2379 43.8628 39.5042 44.7778 39.5042 45.6876V55.083Z" fill="#FFDD2D"/>
<path fill-rule="evenodd" clip-rule="evenodd" d="M46.1913 59.1331C46.072 59.1217 45.9736 59.2145 45.9641 59.3317C45.9562 59.4533 46.045 59.5566 46.1661 59.5592C46.2819 59.5688 46.3837 59.4796 46.3951 59.3597C46.3985 59.2451 46.3132 59.1375 46.1913 59.1331Z" fill="black"/>
<path fill-rule="evenodd" clip-rule="evenodd" d="M55.8717 75.6412L54.9177 73.0113C56.0527 72.665 58.0041 71.9201 58.8788 71.4246L58.2957 73.3384L60.2714 73.997C59.0764 74.598 57.6272 75.1589 55.8717 75.6412ZM49.9488 78.0051C47.6492 78.0051 45.0259 77.4748 44.2522 77.1991L45.4272 74.0144C46.4011 74.2997 48.4282 74.6024 49.8992 74.5928H49.9923C51.4632 74.6024 53.4877 74.2997 54.4669 74.0144L55.6393 77.1991C54.8664 77.4748 52.2422 78.0051 49.9488 78.0051ZM39.62 73.997L41.5993 73.3384L41.0135 71.4246C41.8865 71.9201 43.8414 72.665 44.9737 73.0113L44.0189 75.6412C42.2695 75.1589 40.8142 74.598 39.62 73.997ZM60.3602 73.4125L59.1573 72.9502L59.4898 71.7037L59.8554 70.3465C59.8554 70.3465 57.7238 71.5057 54.7193 72.3754C53.8672 72.6196 53.2223 72.7322 53.2223 72.7322V73.6568C53.2223 73.6568 51.6155 73.9359 49.9923 73.9359H49.8992C48.2742 73.9359 46.6701 73.6568 46.6701 73.6568V72.7322C46.6701 72.7322 46.0234 72.6196 45.1722 72.3754C42.1685 71.5057 40.0387 70.3465 40.0387 70.3465L40.399 71.7037L40.7385 72.9502L39.5313 73.4125L38.1926 73.9132C39.7262 74.6564 41.8526 75.7363 43.7978 76.2702L43.3392 77.5271C43.3392 77.5271 45.8067 78.6532 49.9174 78.6637V78.6663H49.9731V78.6637C54.0883 78.6532 56.554 77.5271 56.554 77.5271L56.0927 76.2702C58.0389 75.7363 60.1687 74.6564 61.6953 73.9132L60.3602 73.4125Z" fill="black"/>
<path fill-rule="evenodd" clip-rule="evenodd" d="M44.9224 22.7228L45.4689 22.7804L45.7057 22.2806L46.3942 20.8038L47.6736 21.4667L48.1688 21.7206L49.9435 19.9568L51.3266 21.3289L51.7226 21.7206L52.2187 21.4667L53.4903 20.8038L54.1892 22.2806L54.4207 22.7804L54.9673 22.7228L55.4904 22.66C55.2511 23.1999 55.0744 23.7137 54.9482 24.1385C53.5678 23.3674 51.7739 22.9287 49.9435 22.9287C48.1218 22.9287 46.3297 23.3674 44.9441 24.1385C44.8162 23.7137 44.6412 23.1999 44.4019 22.66L44.9224 22.7228ZM49.9435 23.6989C52.3928 23.6989 54.352 24.5127 55.4347 25.3789C55.4347 25.3789 55.7559 23.439 56.8534 21.7275L54.8812 21.9526L53.8489 19.7553L51.8671 20.7794L49.9435 18.8752L48.0261 20.7794L46.0399 19.7553L45.0094 21.9526L43.0371 21.7275C44.1355 23.439 44.4558 25.3789 44.4558 25.3789C45.5455 24.5127 47.4987 23.6989 49.9435 23.6989Z" fill="black"/>
<path fill-rule="evenodd" clip-rule="evenodd" d="M80.982 56.3307C80.982 56.3307 80.1299 57.8179 78.1733 57.8179H78.1489C75.8007 57.804 74.8537 56.3682 74.8537 56.3682C74.8537 56.3682 74.9895 58.2357 74.1443 60.7567C73.1251 63.7948 74.153 65.9651 74.153 65.9651C74.153 65.9651 73.6038 66.1142 72.9728 66.1142C72.7317 66.1142 72.4793 66.0898 72.2417 66.0279C70.2799 65.5612 69.7907 63.7713 69.7907 63.7713C69.7907 63.7713 69.9709 69.8153 62.9391 69.8153H62.8843C62.8843 69.8153 63.504 68.971 63.6868 66.5408C64.021 62.0555 67.0508 61.4397 67.0508 61.4397C67.0508 61.4397 65.4336 61.2364 64.733 60.6075C63.6372 59.6113 63.7146 58.4617 63.7146 58.4617C66.1882 58.4268 67.8098 57.5824 69.0448 56.151C70.3826 54.6001 70.6028 52.9296 70.6028 52.9296C70.6028 52.9296 69.272 54.1386 66.7 54.1386C66.4737 54.1386 66.2318 54.1273 65.9837 54.1037C64.7661 54.0043 63.9253 53.2297 63.9253 53.2297C66.6034 51.5078 68.4817 48.5054 66.8158 43.9843C65.4806 40.36 62.2742 37.6533 59.0451 35.6139C57.971 34.9422 57.3722 34.1938 57.3722 33.5509C57.3722 32.0366 59.5212 31.9878 60.4011 30.9716C61.4186 29.7887 60.7806 27.8715 59.8998 26.7166C59.8998 26.7166 60.1966 26.6564 60.6649 26.6564C61.5935 26.6564 63.202 26.8901 64.5241 28.264C66.2788 30.0836 65.5511 32.0663 65.5511 32.0663L66.0211 32.1579C66.3023 32.2172 66.5825 32.2285 66.8732 32.2434C66.9359 32.2434 67.0003 32.2469 67.0621 32.2469C69.6123 32.2469 70.7525 29.575 70.7525 29.575C70.7525 29.575 73.4628 32.9168 69.4713 35.5362C68.7846 35.9837 68.4817 36.3998 68.5609 36.8421L68.6236 37.1325L68.9073 37.1831C71.8004 37.969 73.2644 39.9701 75.0521 42.2432C77.7677 45.7019 81.6078 45.8135 82.0813 45.8135H82.1326C82.1326 45.8135 81.257 48.5865 78.6738 48.5865C78.6302 48.5865 78.5937 48.5865 78.551 48.5839C77.3647 48.5412 76.7555 48.0858 76.7555 48.0858C76.7555 48.0858 76.2933 54.3802 80.982 56.3307ZM78.6738 49.4352C81.8402 49.4352 82.9003 46.2069 82.9438 46.0682L83.2981 44.9299L82.1109 44.9674H82.1065C81.6879 44.9674 78.1933 44.8741 75.7162 41.719L75.4821 41.4259C73.8632 39.3638 72.3287 37.4012 69.5836 36.5062C69.6628 36.4338 69.7768 36.3466 69.9326 36.2445C71.3896 35.285 72.2365 34.1188 72.4488 32.765C72.7604 30.7291 71.4636 29.1049 71.407 29.0386L70.5253 27.9456L69.9744 29.2418C69.9369 29.3229 69.0117 31.3981 67.0621 31.3981H66.9168C66.7836 31.3911 66.6556 31.3859 66.5312 31.3754C66.5991 30.4499 66.4311 29.0176 65.1342 27.6726C63.5754 26.0554 61.664 25.8129 60.6649 25.8129C60.1304 25.8129 59.7753 25.8792 59.7362 25.8826L58.4054 26.1478L59.2261 27.2329C59.8711 28.0695 60.4551 29.6134 59.7623 30.4194C59.5403 30.6767 59.0851 30.8843 58.6491 31.0937C57.7526 31.5063 56.5271 32.0846 56.5271 33.5509C56.5271 34.5 57.2626 35.4935 58.5951 36.3379C62.5379 38.823 64.9706 41.4163 66.0211 44.2792C67.647 48.6825 65.5259 51.1938 63.4666 52.5179L62.5423 53.1128L63.3517 53.8577C63.4605 53.9537 64.4484 54.8269 65.9106 54.9525C66.1874 54.9708 66.452 54.9856 66.7 54.9856C67.6357 54.9856 68.4338 54.8382 69.0822 54.6402C68.9047 54.9525 68.6836 55.2726 68.4086 55.5936C67.2318 56.9605 65.7835 57.5824 63.7007 57.6164L62.927 57.6286L62.8678 58.4067C62.8599 58.5637 62.8025 60.0065 64.1638 61.2329C64.3726 61.4231 64.6242 61.5792 64.8888 61.7066C63.9644 62.5405 63.0262 63.9928 62.8443 66.4797C62.6902 68.5558 62.1967 69.3242 62.1906 69.3321L61.3359 70.6405L62.8817 70.6615C65.4354 70.6615 67.3911 69.9558 68.7463 68.5558C69.547 67.728 70.0057 66.7929 70.2755 65.9651C70.7203 66.3445 71.2939 66.6777 72.0424 66.8548C72.3261 66.9211 72.636 66.9577 72.9728 66.9577C73.6944 66.9577 74.2984 66.8042 74.3654 66.7876L75.3524 66.5251L74.9164 65.6022C74.8842 65.5281 74.0608 63.6744 74.9468 61.0323C75.328 59.8887 75.523 58.8655 75.6179 58.0683C76.2393 58.3928 77.0723 58.6605 78.1481 58.664C80.5912 58.664 81.6687 56.8349 81.7166 56.7581L82.1979 55.9181L81.3058 55.55C78.3944 54.3384 77.7494 51.0847 77.6206 49.3236C77.8835 49.3751 78.1846 49.4213 78.5241 49.4309L78.6738 49.4352Z" fill="black"/>
<path fill-rule="evenodd" clip-rule="evenodd" d="M75.1151 35.6216C75.7052 35.6216 76.3928 35.8231 77.0429 36.4965C79.084 38.5726 80.9823 38.6886 80.9823 38.6886C80.6376 39.4544 79.6375 40.1261 78.6018 40.1261C78.3624 40.1261 78.1213 40.0895 77.8837 40.0066C76.4789 39.5321 75.9767 37.422 73.511 36.1066C73.511 36.1066 74.1986 35.6216 75.1151 35.6216ZM73.1088 36.8568C74.2899 37.4874 74.9784 38.3327 75.5816 39.082C76.1752 39.8138 76.7366 40.5169 77.6183 40.81C77.9307 40.9173 78.2632 40.9687 78.6018 40.9687C79.9221 40.9687 81.2503 40.1584 81.7534 39.0357L82.26 37.9114L81.0345 37.8381C80.977 37.8372 79.4008 37.6924 77.6487 35.8981C76.9272 35.1611 76.0542 34.7746 75.1151 34.7746C73.967 34.7746 73.1158 35.3495 73.0218 35.4088L71.8964 36.2034L73.1088 36.8568Z" fill="black"/>
<path fill-rule="evenodd" clip-rule="evenodd" d="M73.6629 48.0677V48.1113C72.9527 42.3629 68.7879 38.2117 64.1532 35.6891C63.725 35.4588 63.3281 35.2634 62.9451 35.0767C64.3551 35.2965 66.6277 35.3227 68.3823 33.7979C68.3823 33.7979 65.6981 35.7763 60.2017 33.9794C61.7222 34.9686 64.6789 36.3651 67.3797 38.6269C74.1268 44.5698 69.2997 50.3661 69.2997 50.3661C71.7246 47.8295 71.8255 45.1124 71.1118 42.8933C72.3887 45.0243 73.2051 47.6088 73.078 50.7979C72.8926 55.3652 70.3868 59.3158 67.7513 62.4892C66.4849 64.0296 66.202 65.9225 66.202 65.9225C66.202 65.9225 66.7129 64.2521 68.1787 62.5337C71.0039 59.219 73.4192 55.7769 73.736 50.8154C74.0276 51.7164 75.2313 54.2182 77.14 55.1611C77.14 55.1611 74.7413 53.7122 73.6629 48.0677Z" fill="black"/>
<path fill-rule="evenodd" clip-rule="evenodd" d="M36.953 69.8153C29.9204 69.8153 30.0996 63.7713 30.0996 63.7713C30.0996 63.7713 29.6088 65.5612 27.6495 66.0279C27.4145 66.0898 27.1639 66.1142 26.9193 66.1142C26.2883 66.1142 25.7417 65.9651 25.7417 65.9651C25.7417 65.9651 26.7644 63.7948 25.7452 60.7567C24.9026 58.2366 25.0393 56.3682 25.0393 56.3682C25.0393 56.3682 24.0941 57.804 21.7432 57.8179H21.7197C19.7648 57.8179 18.911 56.3307 18.911 56.3307C23.5962 54.3802 23.1375 48.0858 23.1375 48.0858C23.1375 48.0858 22.5283 48.5412 21.3402 48.5839C21.2967 48.5865 21.2584 48.5865 21.2175 48.5865C18.6325 48.5865 17.7569 45.8135 17.7569 45.8135H17.8091C18.2869 45.8135 22.1227 45.701 24.8365 42.2432C26.6251 39.9692 28.0908 37.9699 30.9796 37.1831L31.2694 37.1317L31.3312 36.8421C31.4113 36.3998 31.1093 35.9837 30.4226 35.5362C26.4319 32.9168 29.1422 29.5759 29.1422 29.5759C29.1422 29.5759 30.2755 32.2469 32.8326 32.2469C32.8944 32.2469 32.9527 32.2442 33.0189 32.2442C33.3061 32.2285 33.5898 32.2172 33.8701 32.1579L34.3401 32.0663C34.3401 32.0663 33.6099 30.0836 35.3698 28.264C36.6919 26.8901 38.2986 26.6564 39.2273 26.6564C39.6981 26.6564 39.9906 26.7166 39.9906 26.7166C39.1115 27.8715 38.4744 29.7887 39.491 30.9716C40.3709 31.9878 42.5173 32.0366 42.5173 33.5509C42.5173 34.1938 41.9193 34.9422 40.847 35.6139C37.6153 37.6533 34.4097 40.36 33.0755 43.9843C31.4113 48.5063 33.2896 51.5078 35.9712 53.2297C35.9712 53.2297 35.1278 54.0043 33.9084 54.1037C33.6604 54.1273 33.4201 54.1386 33.1895 54.1386C30.6201 54.1386 29.2902 52.9296 29.2902 52.9296C29.2902 52.9296 29.5113 54.6001 30.8412 56.1519C32.0841 57.5824 33.703 58.4268 36.1775 58.4617C36.1775 58.4617 36.2558 59.6113 35.1617 60.6066C34.4594 61.2364 32.8413 61.4397 32.8413 61.4397C32.8413 61.4397 35.8737 62.0555 36.2071 66.5399C36.3881 68.971 37.0035 69.8153 37.0035 69.8153H36.953ZM37.7006 69.3321C37.698 69.3242 37.2071 68.5558 37.0496 66.4797C36.8659 63.992 35.9277 62.5405 35.0007 61.7066C35.2688 61.5792 35.5169 61.4231 35.7257 61.2329C37.087 60.0065 37.0296 58.5637 37.02 58.4067L36.9678 57.6286L36.1879 57.6164C34.1112 57.5824 32.6603 56.9605 31.4835 55.5936C31.2102 55.2726 30.9892 54.9525 30.8099 54.6402C31.4574 54.8382 32.2503 54.9856 33.1895 54.9856C33.441 54.9856 33.703 54.9708 33.9798 54.9525C35.442 54.8269 36.4316 53.9546 36.5413 53.8577L37.3507 53.1128L36.4273 52.5179C34.3601 51.1938 32.2477 48.6825 33.8701 44.2792C34.9215 41.4163 37.3507 38.823 41.2996 36.3379C42.6322 35.4935 43.3615 34.5 43.3615 33.5509C43.3615 32.0846 42.1395 31.5063 41.2431 31.0937C40.8061 30.8843 40.3509 30.6767 40.1298 30.4194C39.4353 29.6134 40.0202 28.0695 40.6651 27.2329L41.492 26.1478L40.1533 25.8826C40.1142 25.8783 39.7634 25.8129 39.2273 25.8129C38.2281 25.8129 36.3202 26.0554 34.7622 27.6726C33.4636 29.0185 33.2931 30.4499 33.3601 31.3754C33.2347 31.3859 33.1085 31.3911 32.9754 31.3981H32.8326C30.8778 31.3981 29.9543 29.3229 29.9186 29.2418L29.3694 27.9456L28.479 29.0386C28.4294 29.1049 27.1291 30.7291 27.4459 32.765C27.6556 34.1188 28.5043 35.285 29.9604 36.2445C30.1188 36.3466 30.2293 36.4338 30.3085 36.5062C27.5599 37.4012 26.0272 39.3638 24.4083 41.4259L24.175 41.719C21.7014 44.8741 18.199 44.9674 17.7804 44.9674L16.5871 44.9299L16.95 46.0682C16.9927 46.2069 18.0484 49.4352 21.2175 49.4352L21.3698 49.4309C21.7058 49.4213 22.006 49.3751 22.2732 49.3236C22.1427 51.0839 21.496 54.3384 18.5837 55.55L17.6942 55.9181L18.1755 56.7581C18.2217 56.8349 19.3027 58.664 21.7501 58.664C22.8198 58.6605 23.6519 58.3928 24.2742 58.0691C24.3682 58.8655 24.5641 59.8887 24.9462 61.0323C25.8322 63.6744 25.0071 65.5281 24.9758 65.6022L24.538 66.5251L25.5267 66.7876C25.592 66.8042 26.2004 66.9577 26.9193 66.9577C27.2553 66.9577 27.566 66.9211 27.8471 66.8548C28.5965 66.6777 29.1762 66.3445 29.6166 65.9651C29.8847 66.7929 30.3451 67.728 31.1441 68.5558C32.5028 69.9558 34.4567 70.6615 37.0096 70.6615L38.5562 70.6405L37.7006 69.3321Z" fill="black"/>
<path fill-rule="evenodd" clip-rule="evenodd" d="M22.8479 36.4957C23.5006 35.8232 24.1874 35.6208 24.781 35.6208C25.6922 35.6208 26.3824 36.1067 26.3824 36.1067C23.9193 37.4221 23.411 39.5322 22.0045 40.0076C21.7721 40.0904 21.531 40.1253 21.2908 40.1253C20.2559 40.1253 19.2541 39.4545 18.912 38.6887C18.912 38.6887 20.8094 38.5727 22.8479 36.4957ZM21.2908 40.9688C21.6302 40.9688 21.9618 40.9182 22.2751 40.8109C23.1586 40.517 23.72 39.8148 24.3127 39.0821C24.9193 38.3336 25.6 37.4875 26.7819 36.8569L27.9979 36.2035L26.869 35.408C26.775 35.3487 25.9281 34.7756 24.781 34.7756C23.8392 34.7756 22.9654 35.1611 22.2447 35.8982C20.49 37.6934 18.9181 37.8373 18.8615 37.8391L17.6378 37.9115L18.14 39.0367C18.6457 40.1585 19.9713 40.9688 21.2908 40.9688Z" fill="black"/>
<path fill-rule="evenodd" clip-rule="evenodd" d="M26.8151 50.7979C26.6837 47.6088 27.5009 45.0243 28.7795 42.8933C28.0667 45.1124 28.1633 47.8295 30.5916 50.367C30.5916 50.367 25.7628 44.5698 32.5143 38.6269C35.2133 36.3651 38.1674 34.9686 39.6879 33.9794C34.1932 35.7763 31.5099 33.7979 31.5099 33.7979C33.2628 35.3227 35.5362 35.2965 36.9454 35.0767C36.5641 35.2634 36.1638 35.4579 35.7382 35.6891C31.1017 38.2117 26.9395 42.3629 26.2258 48.1113V48.0677C25.1492 53.7122 22.7522 55.1611 22.7522 55.1611C24.6592 54.2182 25.8603 51.7164 26.1527 50.8154C26.4713 55.7769 28.8866 59.219 31.7109 62.5337C33.1766 64.2521 33.6928 65.9225 33.6928 65.9225C33.6928 65.9225 33.4064 64.0296 32.1339 62.4892C29.5028 59.3167 26.9996 55.3652 26.8151 50.7979Z" fill="black"/>
<path fill-rule="evenodd" clip-rule="evenodd" d="M48.3567 39.1675V40.3076C48.7503 39.8287 49.507 39.9264 49.507 39.9264V41.5698C49.507 41.5698 49.4817 42.3784 49.1944 42.7282H50.8357C50.5519 42.3784 50.524 41.5698 50.524 41.5698V39.9264C50.524 39.9264 51.2833 39.8287 51.6734 40.3076V39.1675H48.3567Z" fill="black"/>
<path fill-rule="evenodd" clip-rule="evenodd" d="M47.6532 32.4072C48.1783 32.8242 48.4813 32.894 48.4909 32.9001L48.6964 32.9951V31.9222L46.7677 31.1101C46.7677 31.1101 46.7842 31.7321 47.6532 32.4072Z" fill="black"/>
<path fill-rule="evenodd" clip-rule="evenodd" d="M52.2362 32.4072C53.1078 31.7321 53.1244 31.1101 53.1244 31.1101L51.1957 31.9222V32.9951L51.3995 32.9001C51.4099 32.894 51.712 32.8242 52.2362 32.4072Z" fill="black"/>
<path fill-rule="evenodd" clip-rule="evenodd" d="M49.9439 29.5487L45.3004 27.7099C45.6956 26.7731 47.5164 25.9758 49.9439 25.9732C52.3748 25.9758 54.1957 26.7731 54.5891 27.7099L49.9439 29.5487ZM53.4062 35.3084L50.2851 36.957V30.2823L54.5203 28.8413L53.4062 35.3084ZM55.3393 37.08L56.7667 37.9104H56.7868L57.1454 38.1207C56.3394 38.344 55.724 38.7478 55.207 39.2782C55.1879 39.2948 55.1713 39.314 55.1505 39.334C55.0321 39.4605 54.9146 39.5966 54.8014 39.7379C54.7814 39.7641 54.7588 39.792 54.7353 39.8234C54.6256 39.9656 54.5203 40.1121 54.4211 40.263C54.4045 40.2892 54.3854 40.3153 54.368 40.3406C54.2505 40.5177 54.1365 40.7061 54.0242 40.9015C53.0076 42.6566 51.3861 43.705 49.9439 43.7077C48.5034 43.705 46.881 42.6566 45.8662 40.9015C45.7556 40.7114 45.6442 40.5273 45.5267 40.3485C45.5032 40.3153 45.4823 40.2805 45.4606 40.2517C45.3614 40.106 45.2604 39.9629 45.1594 39.8286C45.1333 39.792 45.1098 39.7641 45.0837 39.7327C44.9732 39.5966 44.86 39.4622 44.7451 39.3384C44.7208 39.3183 44.7042 39.2948 44.6833 39.2747C44.1637 38.7435 43.5501 38.344 42.7433 38.1207L43.1053 37.9104H43.1219L44.5519 37.08L46.0185 36.2383L49.9369 38.3763L49.9439 38.3675L49.9552 38.3763L53.8727 36.2383L55.3393 37.08ZM60.9698 43.0177C60.6503 43.8629 60.3858 44.778 60.3858 45.6878L60.3884 51.5617C59.1637 51.3559 59.0193 50.0344 59.014 49.9768L58.9914 49.7081L58.7277 49.6846C58.1959 49.6331 57.8425 49.4081 57.5449 49.1185C56.9443 48.5166 56.9434 47.5414 56.9443 47.5326C56.9356 47.5824 56.2837 48.4983 57.0409 49.4988C57.3595 49.9201 57.8216 50.18 58.4187 50.2821C58.5588 51.0148 59.1037 52.0502 60.3884 52.2081V55.0831H56.7746C55.1087 54.1533 55.8145 52.5186 55.8468 52.448L55.9878 52.1383L55.6692 52.0171C53.864 51.3463 54.3619 49.5424 54.3854 49.4648L54.4585 49.2013L54.2122 49.0853C52.723 48.3927 52.924 46.5286 52.9441 46.4501C52.4854 46.8235 52.3209 47.5824 52.6359 48.3273C52.4654 48.5236 52.2364 48.7591 51.9849 49.0199C50.4417 48.6256 50.3939 47.2047 50.3939 47.1392L50.3904 46.9203L50.1876 46.8418C49.5853 46.6185 49.1719 46.2827 48.9673 45.8326C48.7393 45.3336 48.8194 44.8111 48.882 44.559C49.0587 44.6 49.2345 44.6271 49.4025 44.6419C49.5766 44.6593 49.7541 44.6707 49.9334 44.6707H49.9578C50.1362 44.6707 50.3129 44.6593 50.487 44.6419C51.4488 44.5459 52.5245 44.1325 53.6464 43.0177H60.9698ZM56.4543 68.6158L56.8581 66.5084C56.879 66.3845 56.9051 66.2397 56.9225 66.1184C57.0374 66.1664 57.1567 66.2048 57.2872 66.2292C57.4387 66.258 57.5771 66.2728 57.7033 66.2728C58.3195 66.2728 58.6789 65.9483 58.9174 65.671L59.2264 65.3098L58.974 64.9129C58.9514 64.8737 58.3909 63.9866 57.9609 63.3795C57.8756 63.26 57.7955 63.1413 57.7137 63.0131C57.2237 62.2786 56.6109 61.3584 55.3811 61.3584L55.2714 61.361C55.0695 61.3741 54.8954 61.4142 54.7544 61.4674C54.368 61.2868 53.9694 61.1926 53.5551 61.1926C53.0459 61.1926 52.6194 61.3331 52.3339 61.4299C52.2521 61.4535 52.179 61.4796 52.1216 61.491L49.8238 61.2642C49.795 61.2581 49.7019 61.2031 49.587 61.0679V61.0566L50.084 60.8568C49.9439 59.1968 48.3537 58.1763 47.4677 57.83C47.4294 57.6642 47.3493 57.4985 47.21 57.3633L46.7165 56.894L46.2822 57.4156L46.069 57.6808L42.8512 56.3567L44.9444 58.9901L44.1185 60.2445C43.8164 60.5655 44.1498 60.8891 44.1498 60.8891L45.0036 61.4779L45.8879 61.1473C45.9184 61.1473 45.9454 61.1543 45.9758 61.1578C45.9323 61.2921 45.8766 61.8207 45.8401 61.9681L44.3047 61.6663L42.6919 62.5787C41.8625 63.1893 41.7493 64.1985 42.0574 64.8903L42.2358 65.2819L42.49 65.8358L43.0549 65.602C43.0627 65.5994 43.0705 65.5968 43.0758 65.5925C42.873 66.2423 42.9556 66.8599 43.3168 67.2646L43.6598 67.6964L44.1158 68.2739L44.6163 67.7348C44.7625 67.5882 45.2412 67.0518 45.3875 66.593L45.4963 66.2423L45.2526 65.9728L45.2116 65.9239L45.4867 65.4695L47.4903 65.9431L47.942 66.0469L48.1814 65.65L48.3119 65.4346C48.3372 65.3883 48.3424 65.3814 48.4355 65.3814C48.5069 65.3814 48.5774 65.3883 48.654 65.4058C49.4103 65.5488 50.1075 65.6195 50.7263 65.6195C51.3269 65.6195 51.6864 65.5968 52.1137 65.4546C52.1137 65.4546 53.1895 66.6793 53.2269 66.7264L52.5672 68.7641L52.5385 68.8871C51.2903 68.9883 50.6828 69.263 49.9482 69.9975C48.882 68.9377 48.1265 68.826 45.2604 68.826C41.8294 68.826 39.5037 66.8102 39.5037 63.5897V55.7173H60.3884L60.3927 63.5897C60.3927 66.1996 58.8635 68.0218 56.4543 68.6158ZM43.591 64.1645L43.6998 64.4367C43.6276 64.6748 42.8129 65.0115 42.8129 65.0115L42.6371 64.6251C42.45 64.2134 42.49 63.519 43.0575 63.0942L44.3787 62.2882L45.78 62.5857C45.7539 63.0314 46.0194 63.3646 46.0194 63.3646L44.5519 63.082L43.6737 63.69C43.524 63.7947 43.5136 63.9866 43.591 64.1645ZM56.2332 66.3897L55.7832 68.744C55.4942 68.785 55.1914 68.806 54.878 68.8182L55.3532 66.5555C55.4942 65.8829 53.6926 65.6736 52.8022 64.3512C52.3679 64.8405 51.5497 64.9871 50.7263 64.9871C49.9761 64.9871 49.2267 64.8676 48.7706 64.7769C48.6549 64.7585 48.5443 64.7455 48.4355 64.7455C48.1727 64.7455 47.9324 64.8275 47.7662 65.1057L47.6356 65.3273L45.1803 64.7481L44.5693 65.7617C44.484 65.9265 44.4771 66.0644 44.6163 66.2179L44.7817 66.3993C44.6677 66.7578 44.1568 67.3004 44.1568 67.3004L43.7921 66.8433C43.5031 66.5197 43.5501 65.9265 43.8513 65.3779L44.8252 63.7301L46.9054 64.0311L46.5825 63.2931C46.1482 62.3161 46.8105 61.0749 46.881 60.3596C46.8567 60.5759 46.6582 60.6248 46.4284 60.6248C46.2187 60.6248 45.9845 60.5847 45.8287 60.5847C45.767 60.5847 45.7147 60.5908 45.6869 60.6117L45.1229 60.9545L44.679 60.5602C44.625 60.4852 44.6085 60.3073 44.7382 60.1747L45.7669 59.018L44.5519 57.5945L46.2535 58.4519L46.774 57.8204C46.9167 57.9608 46.854 58.3272 46.854 58.3272C47.385 58.3403 48.8751 59.1654 48.9543 61.0932C48.9586 61.1525 48.9586 61.2179 48.9586 61.2816C48.9586 61.2816 48.9725 61.306 48.9986 61.3453C49.1031 61.491 49.3947 61.8626 49.7628 61.8966L52.1155 62.1303H52.125C52.3827 62.1303 52.8962 61.8268 53.5551 61.8268C53.9145 61.8268 54.3132 61.9184 54.7388 62.187C54.7388 62.187 54.9538 62.017 55.3002 61.9995C55.3263 61.996 55.3567 61.996 55.3811 61.996C56.436 61.996 56.8747 62.952 57.4413 63.7458C57.8669 64.3512 58.4361 65.2479 58.4361 65.2479C58.2264 65.4974 58.0314 65.6369 57.7033 65.6369C57.6136 65.6369 57.5118 65.63 57.4004 65.6073C56.268 65.3979 56.1053 63.0663 55.4594 62.8823C55.4246 62.8727 55.3898 62.8692 55.3567 62.8692C55.1487 62.8692 55.0582 63.0541 55.0582 63.0541C55.3533 63.8496 55.18 64.1706 55.4986 64.783C55.7353 65.2374 56.1575 65.6108 56.3307 65.7878C56.3307 65.7878 56.2837 66.1324 56.2332 66.3897ZM54.0677 68.8339C53.7509 68.8339 53.4593 68.8382 53.1973 68.8487L53.8867 66.6976C53.9937 66.3993 53.4497 66.0164 53.2243 65.6806C53.5638 65.8943 54.4437 66.3627 54.8667 66.5494C54.8241 66.6191 54.0677 68.8339 54.0677 68.8339ZM43.8208 49.4499L43.9191 45.7104L44.7564 44.8224L45.2822 45.9259L44.2455 49.5153L43.8208 49.4499ZM44.4231 50.6083C44.5597 50.8962 44.8061 51.0881 44.9793 51.1971C44.9732 51.4675 44.9479 51.8853 44.8774 52.2552C44.86 52.3381 44.8391 52.414 44.8165 52.4898C44.8043 52.5378 44.7904 52.5771 44.7808 52.6085C44.5241 52.6085 44.0227 52.5771 43.611 52.427C43.1558 52.2587 42.4769 51.4222 42.6336 50.4993C42.8303 50.3789 43.2864 50.1216 43.7137 50.1216C44.0419 50.1216 44.2664 50.2769 44.4231 50.6083ZM54.1217 51.6132C53.4776 52.0886 51.8187 53.3028 51.2164 53.7241L45.424 52.6809C45.438 52.6294 45.4519 52.5771 45.4641 52.5265C45.5398 52.2247 45.6181 51.8138 45.6216 51.3297L50.4905 51.4082L50.5836 51.3131C50.6576 51.239 52.1999 49.7456 52.9858 48.8864C53.173 49.1219 53.4062 49.3461 53.7135 49.5424C53.609 50.1146 53.6534 50.9276 54.1217 51.6132ZM46.2448 43.0177C46.9411 43.7112 47.6226 44.1421 48.2701 44.3793C48.1866 44.7143 48.0761 45.4051 48.3876 46.0934C48.6427 46.6481 49.1048 47.0756 49.7733 47.3608C49.8464 48.0473 50.2798 49.0792 51.4766 49.5337C50.9518 50.064 50.4417 50.5638 50.2355 50.7653L45.377 50.6886C45.2674 50.6336 45.0785 50.5089 44.9949 50.3336C44.9854 50.3083 44.9697 50.2952 44.9592 50.2707L45.7522 50.399C45.7687 50.4016 45.7861 50.4016 45.8026 50.4016C45.9558 50.4016 46.089 50.2952 46.1142 50.1373C46.1403 49.962 46.0237 49.7997 45.8522 49.7727L44.8774 49.6183L45.9584 45.8727L44.934 43.7112L43.2916 45.4514L43.1906 49.3461L42.087 49.1699C41.9164 49.1368 41.7537 49.2615 41.7232 49.4351C41.6971 49.6061 41.8137 49.7692 41.9869 49.7997L42.45 49.8704C42.2846 49.9646 42.1749 50.0396 42.1619 50.0501L42.0687 50.1155L42.0426 50.2315C41.7745 51.3245 42.3812 52.3616 43.0375 52.8257L43.014 52.9635C42.987 53.1318 43.0253 53.2958 43.1262 53.4328C43.222 53.5732 43.3673 53.657 43.5327 53.6866C43.5666 53.6927 43.6032 53.6953 43.6345 53.6953C43.9191 53.6953 44.1672 53.4982 44.2368 53.2104C44.4805 53.2391 44.7042 53.2452 44.8574 53.2452H44.988L51.3617 54.4001L51.4705 54.3277C51.9779 53.9719 53.9145 52.5579 54.549 52.0895C54.724 52.2404 54.9189 52.3764 55.1548 52.4898C54.9485 53.1798 54.9363 54.2431 55.7484 55.0831H39.5037V45.6878C39.5037 44.778 39.2383 43.8629 38.9241 43.0177H46.2448ZM45.3666 28.8413L49.6053 30.2823V36.957L46.4841 35.3084L45.3666 28.8413ZM55.7084 28.0362C55.7084 26.4076 52.9728 24.9422 49.9534 24.9422H49.9369C46.9176 24.9422 44.182 26.4076 44.182 28.0362L44.2421 28.4365L45.4475 35.3721L44.2368 36.0769L41.1035 37.9104H41.1148C41.1148 37.9104 40.4098 38.2733 40.0834 38.4966C38.8901 39.327 38.6368 40.5386 39.3297 41.0393C39.5003 40.051 40.2792 39.0191 41.7389 39.0191C42.7894 39.0191 43.591 39.5626 44.2368 40.3773C44.4039 40.5831 44.5615 40.803 44.7086 41.0393C44.8896 41.3377 45.0724 41.5993 45.2526 41.8514H37.1816C37.7752 43.0465 38.3392 44.3122 38.3392 45.6878V63.5897C38.3392 67.9232 41.664 69.9914 45.2604 69.9914C48.0404 69.9914 48.4146 69.864 49.9482 71.3958C51.4749 69.864 51.85 69.9914 54.6317 69.9914C58.2307 69.9914 61.5512 67.9232 61.5512 63.5897V45.6878C61.5512 44.3122 62.1143 43.0465 62.7105 41.8514H54.6369C54.8171 41.5993 54.999 41.3377 55.18 41.0393C55.3298 40.803 55.4864 40.5831 55.65 40.3773C56.302 39.5591 57.101 39.0191 58.1524 39.0191C59.6102 39.0191 60.3884 40.051 60.5616 41.0393C61.2544 40.5386 61.0037 39.327 59.8035 38.4966C59.4823 38.2733 58.7764 37.9104 58.7764 37.9104H58.7877L55.65 36.0769L54.4437 35.3721L55.65 28.4365L55.7084 28.0362Z" fill="black"/>
<path d="M99.5793 32.0002V66.0002H109.792V56.8574H120.568C123.103 56.8574 125.569 56.786 127.963 56.0002C132.612 54.5002 136.063 50.286 136.063 44.5717C136.063 38.8574 132.682 34.7145 128.104 33.0717C125.569 32.1431 123.174 32.0002 120.568 32.0002H99.5793ZM109.792 40.2145H119.089C121.061 40.2145 122.188 40.4288 123.103 40.786C124.723 41.4288 125.498 42.9288 125.498 44.5002C125.498 46.2145 124.582 47.8574 122.822 48.4288C121.977 48.7145 120.99 48.8574 119.089 48.8574H109.792V40.2145Z" fill="white"/>
<path d="M163.661 61.0717L165.633 66.0002H177.114L163.38 32.0002H148.448L134.714 66.0002H146.265L148.167 61.0717H163.661ZM155.562 39.8574H156.337L161.196 53.5717H150.702L155.562 39.8574Z" fill="white"/>
<path d="M201.972 32.0002L193.661 47.5002H193.309L184.928 32.0002H173.025L188.168 56.9288V66.0002H198.732V56.1431L213.1 32.0002H201.972Z" fill="white"/>
</svg>
